<svg xmlns="http://www.w3.org/2000/svg" width="1600" height="900" viewBox="0 0 1600 900" role="img" aria-labelledby="title desc">
<title id="title">Hindustan Copper Recruitment 2026</title>
<desc id="desc">43 Fixed Term Executive posts with one Hard of Hearing reserved vacancy.</desc>
<defs>
  <linearGradient id="bg" x1="0" x2="1"><stop offset="0" stop-color="#2b0b59"/><stop offset="1" stop-color="#6d28d9"/></linearGradient>
  <linearGradient id="mine" x1="0" y1="0" x2="0" y2="1"><stop offset="0" stop-color="#d9dce5"/><stop offset="1" stop-color="#b9becb"/></linearGradient>
  <filter id="shadow" x="-20%" y="-20%" width="140%" height="140%"><feDropShadow dx="0" dy="10" stdDeviation="16" flood-opacity=".18"/></filter>
</defs>
<rect width="1600" height="900" fill="#f7f7fb"/>
<rect x="0" y="0" width="1600" height="330" fill="url(#bg)"/>
<circle cx="1425" cy="92" r="170" fill="#ffffff" opacity=".07"/>
<circle cx="1290" cy="160" r="95" fill="#ffffff" opacity=".05"/>

<!-- Header -->
<g transform="translate(70,55)">
  <circle cx="52" cy="52" r="52" fill="#b45309"/>
  <circle cx="52" cy="52" r="40" fill="#fef3c7"/>
  <text x="52" y="65" text-anchor="middle" font-family="Arial, sans-serif" font-size="34" font-weight="700" fill="#7c2d12">HCL</text>
  <text x="125" y="38" font-family="Arial, sans-serif" font-size="26" font-weight="700" fill="#ffffff">HINDUSTAN COPPER LIMITED</text>
  <text x="125" y="74" font-family="Arial, sans-serif" font-size="19" fill="#e9ddff">Government of India Enterprise · Ministry of Mines</text>
</g>

<!-- Main title -->
<text x="70" y="205" font-family="Arial, sans-serif" font-size="74" font-weight="800" fill="#ffffff">Hindustan Copper</text>
<text x="70" y="285" font-family="Arial, sans-serif" font-size="74" font-weight="800" fill="#ffffff">Recruitment 2026</text>

<!-- Mine illustration -->
<g transform="translate(1040,300)">
  <path d="M0 175 L160 30 L420 30 L560 175 Z" fill="#e5e7eb"/>
  <path d="M35 175 L185 62 L395 62 L525 175 Z" fill="#cbd5e1"/>
  <path d="M75 175 L210 95 L370 95 L485 175 Z" fill="#94a3b8"/>
  <rect x="385" y="125" width="120" height="52" rx="8" fill="#f59e0b"/>
  <rect x="470" y="102" width="42" height="38" rx="5" fill="#fbbf24"/>
  <circle cx="410" cy="182" r="28" fill="#1f2937"/><circle cx="490" cy="182" r="28" fill="#1f2937"/>
  <circle cx="410" cy="182" r="12" fill="#9ca3af"/><circle cx="490" cy="182" r="12" fill="#9ca3af"/>
</g>

<!-- Highlight card -->
<g filter="url(#shadow)">
  <rect x="70" y="365" width="940" height="155" rx="26" fill="#ffffff"/>
</g>
<rect x="95" y="392" width="98" height="98" rx="22" fill="#6d28d9"/>
<path d="M131 429c0-20 15-34 34-34 18 0 32 13 32 31 0 12-6 20-13 27-8 7-10 14-10 27h-17c0-18 4-29 15-39 5-5 8-9 8-15 0-9-6-15-15-15-10 0-17 8-17 18v11h-17v-11z" fill="#fff"/>
<circle cx="165" cy="473" r="8" fill="#fff"/>
<text x="225" y="422" font-family="Arial, sans-serif" font-size="28" font-weight="700" fill="#111827">1 Vacancy Reserved for</text>
<text x="225" y="472" font-family="Arial, sans-serif" font-size="42" font-weight="800" fill="#6d28d9">Hard of Hearing (HH) Candidates</text>
<text x="225" y="505" font-family="Arial, sans-serif" font-size="20" fill="#4b5563">PwBD benchmark disability: 40% or more, as per the official notification</text>

<!-- Stats -->
<g font-family="Arial, sans-serif">
  <g transform="translate(70,565)">
    <rect width="280" height="150" rx="22" fill="#ffffff" stroke="#e5e7eb"/>
    <text x="26" y="42" font-size="20" font-weight="700" fill="#4b5563">TOTAL VACANCIES</text>
    <text x="26" y="105" font-size="56" font-weight="800" fill="#6d28d9">43</text>
  </g>
  <g transform="translate(370,565)">
    <rect width="280" height="150" rx="22" fill="#ffffff" stroke="#e5e7eb"/>
    <text x="26" y="42" font-size="20" font-weight="700" fill="#4b5563">APPLICATION START</text>
    <text x="26" y="87" font-size="28" font-weight="800" fill="#111827">21 Sept 2026</text>
    <text x="26" y="118" font-size="20" fill="#6b7280">11:00 AM</text>
  </g>
  <g transform="translate(670,565)">
    <rect width="280" height="150" rx="22" fill="#ffffff" stroke="#e5e7eb"/>
    <text x="26" y="42" font-size="20" font-weight="700" fill="#4b5563">LAST DATE</text>
    <text x="26" y="87" font-size="28" font-weight="800" fill="#111827">5 Oct 2026</text>
    <text x="26" y="118" font-size="20" fill="#6b7280">11:00 PM</text>
  </g>
</g>

<!-- Suitable disciplines -->
<g transform="translate(1030,545)">
  <rect width="500" height="230" rx="24" fill="#ffffff" stroke="#e5e7eb"/>
  <rect width="500" height="56" rx="24" fill="#6d28d9"/>
  <rect y="34" width="500" height="22" fill="#6d28d9"/>
  <text x="28" y="37" font-family="Arial, sans-serif" font-size="22" font-weight="700" fill="#ffffff">HH-suitable disciplines</text>
  <text x="30" y="98" font-family="Arial, sans-serif" font-size="22" fill="#111827">Geology · Electrical · Mechanical</text>
  <text x="30" y="136" font-family="Arial, sans-serif" font-size="22" fill="#111827">Civil · Human Resources · Finance</text>
  <text x="30" y="190" font-family="Arial, sans-serif" font-size="18" fill="#6b7280">Industrial Safety is not identified as suitable for PwBD.</text>
</g>

<!-- Footer -->
<rect x="0" y="810" width="1600" height="90" fill="#111827"/>
<text x="70" y="850" font-family="Arial, sans-serif" font-size="34" font-weight="800" fill="#ffffff">Deaf<tspan fill="#7c3aed">Jobs</tspan>India</text>
<text x="70" y="878" font-family="Arial, sans-serif" font-size="16" fill="#d1d5db">Connecting Deaf Talent with Opportunities</text>
<text x="710" y="854" font-family="Arial, sans-serif" font-size="20" fill="#ffffff">Official: hindustancopper.com</text>
<text x="1175" y="854" font-family="Arial, sans-serif" font-size="20" fill="#e9ddff">Government Jobs · PwBD</text>
</svg>